<?xml version="1.0" encoding="UTF-8"?>
<svg version="1.1" xmlns="http://www.w3.org/2000/svg" width="500" height="500">
<path d="M0 0 C0.81516441 0.00582568 1.63032881 0.01165137 2.47019517 0.01765358 C3.33353357 0.01594473 4.19687197 0.01423589 5.08637214 0.01247525 C7.99616484 0.00916569 10.90572991 0.02020808 13.81550157 0.03111184 C15.89458782 0.03167563 17.97367447 0.03136001 20.05276048 0.03022683 C25.71158709 0.02965108 31.37032955 0.04144114 37.02913654 0.05537474 C42.93752467 0.0678453 48.84591456 0.06904969 54.75431383 0.07142556 C65.94925317 0.07765116 77.14415362 0.09407656 88.3390758 0.11412454 C101.08131689 0.13644998 113.8235598 0.14746851 126.56581557 0.15751541 C152.78366869 0.17844187 179.00148725 0.21363878 205.21931016 0.25816262 C205.86457203 1.50362018 206.5045655 2.75180792 207.14240587 4.00108254 C207.49938051 4.69586205 207.85635515 5.39064156 208.2241472 6.106475 C209.78619462 9.48384958 210.61548762 12.9476548 211.40681016 16.57066262 C211.57406602 17.31340432 211.74132188 18.05614602 211.9136461 18.82139504 C213.17485815 24.61957197 214.01269761 30.32029733 214.21931016 36.25816262 C214.2592711 37.16179543 214.29923204 38.06542824 214.34040391 38.99644387 C215.08873299 71.52674886 203.50657599 101.68346221 181.21931016 125.25816262 C159.26341218 147.18335305 131.16333547 158.89198836 100.21931016 159.63316262 C67.24904006 158.87484641 39.24061997 145.64949626 15.74274766 122.85581887 C-4.86722769 100.97137508 -15.78298854 70.56625748 -15.03459609 40.60191262 C-13.17099701 0.07097389 -13.17099701 0.07097389 0 0 Z M107.21931016 24.25816262 C103.20430664 33.52106559 100.29690358 43.13817294 97.28181016 52.75816262 C96.71795543 54.55067773 96.15398856 56.34315757 95.58991563 58.13560402 C94.40759869 61.89601491 93.2284258 65.65739641 92.05085313 69.41929543 C90.50452316 74.35580418 88.94473342 79.28795531 87.38158739 84.21916115 C86.15690749 88.0884806 84.94003232 91.96022339 83.72513902 95.83262551 C83.13896174 97.6963374 82.54987968 99.55913822 81.95786607 101.42100441 C81.13304443 104.01784117 80.31936175 106.61791596 79.50837266 109.21910012 C79.26011232 109.99220528 79.01185197 110.76531044 78.75606859 111.56184304 C77.37287305 115.88107357 77.37287305 115.88107357 78.21931016 120.25816262 C80.85931016 120.25816262 83.49931016 120.25816262 86.21931016 120.25816262 C89.8489533 111.69556322 92.738802 102.91206203 95.59431016 94.07066262 C95.97166307 92.90768151 95.97166307 92.90768151 96.35663927 91.72120583 C103.38442492 70.0251265 109.79300941 48.13825487 116.21931016 26.25816262 C114.26297041 23.84694403 114.26297041 23.84694403 110.59431016 24.13316262 C108.92368516 24.19503762 108.92368516 24.19503762 107.21931016 24.25816262 Z M135.46931016 33.00816262 C133.7055561 36.18291994 133.342367 38.62798594 133.21931016 42.25816262 C134.38932265 46.09320355 135.69708153 48.64098332 138.28181016 51.69566262 C142.59590322 53.99039297 146.43462867 54.02371166 151.21931016 53.25816262 C154.43317287 51.65123127 156.38909435 50.31480093 158.59431016 47.50816262 C159.86963868 42.91697996 159.8783777 38.8692166 158.09431016 34.50816262 C155.33325976 31.19490214 152.60385783 28.67896515 148.22712266 27.90660012 C142.61116733 27.67348499 139.35584678 29.121626 135.46931016 33.00816262 Z M56.28181016 56.32066262 C53.68603908 60.01766992 53.50677428 61.82460603 54.21931016 66.25816262 C56.03998294 69.36004956 57.27296509 70.85970153 60.59431016 72.25816262 C64.1250564 72.25816262 66.22058699 71.05739652 69.21931016 69.25816262 C71.64451562 66.83295716 71.90495458 65.6374852 72.21931016 62.25816262 C71.45286699 59.33174323 70.59122174 57.65762319 68.53181016 55.44566262 C63.92687139 53.08096433 60.47467963 53.37673299 56.28181016 56.32066262 Z M116.21931016 103.25816262 C114.69084355 106.31509584 114.98688571 108.88800809 115.21931016 112.25816262 C116.12166852 114.73921456 116.12166852 114.73921456 118.21931016 116.25816262 C122.19275178 117.3618964 124.30930788 117.67359844 128.09431016 115.94566262 C130.80537782 113.79275595 131.13726265 112.87351896 131.59431016 109.44566262 C131.46763856 106.09656086 131.46763856 106.09656086 129.09431016 103.38316262 C124.7141932 100.14568486 120.75597022 100.23372258 116.21931016 103.25816262 Z " fill="#46B5DC" transform="translate(153.7806898355484,311.7418373823166)"/>
<path d="M0 0 C0.91125641 -0.00832352 1.82251282 -0.01664703 2.76138306 -0.02522278 C5.77040907 -0.04929309 8.77921803 -0.05809241 11.78833008 -0.06469727 C13.88715173 -0.07366762 15.98597273 -0.08278954 18.08479309 -0.09205627 C22.48541821 -0.10854202 26.8859673 -0.11624533 31.28662109 -0.11914062 C36.90762987 -0.12451618 42.52791721 -0.16216434 48.14872265 -0.20788479 C52.48550479 -0.23772811 56.82211499 -0.24486581 61.15899086 -0.24586678 C63.23011889 -0.25005656 65.30124803 -0.26244062 67.3722744 -0.28338432 C88.86549176 -0.48339252 88.86549176 -0.48339252 95.87036133 5.30639648 C102.35146257 12.25670417 102.13701038 18.98599257 102.24536133 27.99389648 C102.30143555 29.73316406 102.30143555 29.73316406 102.35864258 31.50756836 C102.43269007 38.74365425 101.83615976 43.82403368 96.87036133 49.30639648 C94.73754883 51.14624023 94.73754883 51.14624023 92.74536133 52.24389648 C92.0827832 52.62416992 91.42020508 53.00444336 90.73754883 53.39624023 C85.94920119 55.73030927 83.87764676 55.30639648 77.87036133 55.30639648 C77.87036133 94.24639648 77.87036133 133.18639648 77.87036133 173.30639648 C81.50036133 174.29639648 85.13036133 175.28639648 88.87036133 176.30639648 C91.91160784 177.47371749 94.84920439 178.65468354 97.80786133 179.99389648 C98.97043457 180.51826294 98.97043457 180.51826294 100.15649414 181.05322266 C106.88155844 184.16918774 112.92670005 187.86856896 118.87036133 192.30639648 C119.41080078 192.70165527 119.95124023 193.09691406 120.50805664 193.50415039 C146.31315211 212.46464646 166.13000132 238.23804255 174.87036133 269.30639648 C175.11399414 270.12881836 175.35762695 270.95124023 175.60864258 271.79858398 C176.6882908 275.69119323 177.32807952 279.27847644 176.87036133 283.30639648 C175.49536133 285.68139648 175.49536133 285.68139648 173.87036133 287.30639648 C173.21036133 287.30639648 172.55036133 287.30639648 171.87036133 287.30639648 C172.26789954 288.7700599 172.68917517 290.22728998 173.12036133 291.68139648 C173.35239258 292.49350586 173.58442383 293.30561523 173.82348633 294.14233398 C175.11576535 296.8136869 176.22359167 297.12663481 178.87036133 298.30639648 C181.45821159 302.18817187 181.17238484 305.43114012 181.12036133 309.93139648 C181.11286865 310.78096924 181.10537598 311.63054199 181.09765625 312.50585938 C180.56939074 344.23425346 170.87663777 375.44236601 150.87036133 400.30639648 C150.44207031 400.84296875 150.0137793 401.37954102 149.57250977 401.93237305 C125.51539847 431.90257095 92.01520624 450.4995362 53.87036133 455.30639648 C36.31364928 456.24605515 18.92048246 455.91750702 1.87036133 451.30639648 C1.19166992 451.12447754 0.51297852 450.94255859 -0.1862793 450.75512695 C-15.23277524 446.55845972 -29.57693292 439.56713437 -42.12963867 430.30639648 C-42.94247314 429.7135083 -42.94247314 429.7135083 -43.77172852 429.10864258 C-75.02100642 406.14144745 -96.42591272 373.94238001 -102.47216797 335.38085938 C-107.71427299 299.04418296 -101.48318084 259.24489281 -79.12963867 229.30639648 C-78.73437988 228.76595703 -78.33912109 228.22551758 -77.93188477 227.66870117 C-62.38826874 206.51395428 -42.87640741 189.791971 -18.87963867 178.93139648 C-18.14720947 178.59736816 -17.41478027 178.26333984 -16.66015625 177.91918945 C-15.9436792 177.6061084 -15.22720215 177.29302734 -14.48901367 176.97045898 C-13.86478516 176.69669434 -13.24055664 176.42292969 -12.59741211 176.14086914 C-8.86727519 174.8795308 -4.97349789 174.16058742 -1.12963867 173.30639648 C-1.12963867 134.69639648 -1.12963867 96.08639648 -1.12963867 56.30639648 C-3.43963867 56.30639648 -5.74963867 56.30639648 -8.12963867 56.30639648 C-14.76543455 54.59701547 -19.51398668 51.08912195 -23.12963867 45.30639648 C-27.77774992 36.94331754 -27.35846646 25.3887076 -25.50854492 16.23217773 C-23.13816297 9.35280256 -18.5051822 4.57175616 -12.06913757 1.23960876 C-8.01311314 -0.04807051 -4.2318198 0.00329121 0 0 Z M12.74536133 14.55639648 C11.86901031 14.56900513 10.9926593 14.58161377 10.0897522 14.59460449 C7.61752244 14.63373822 5.14667729 14.69307046 2.67504883 14.75952148 C1.59224388 14.77390259 1.59224388 14.77390259 0.48756409 14.78857422 C-3.81492567 14.93591865 -6.804564 15.48756978 -10.12963867 18.30639648 C-10.85932878 20.356895 -10.85932878 20.356895 -10.72338867 22.65014648 C-10.71952148 23.90118164 -10.71952148 23.90118164 -10.71557617 25.17749023 C-10.6872168 26.0450293 -10.65885742 26.91256836 -10.62963867 27.80639648 C-10.6322168 28.67393555 -10.63479492 29.54147461 -10.63745117 30.43530273 C-10.76422622 35.06764359 -10.76422622 35.06764359 -8.7253418 39.01538086 C-4.58010011 42.36911985 0.65251833 41.65240916 5.74926758 41.82397461 C11.65644764 42.09248279 11.65644764 42.09248279 13.87036133 44.30639648 C14.1192503 46.6440773 14.1192503 46.6440773 14.11759949 49.63165283 C14.12179398 50.761642 14.12598846 51.89163116 14.13031006 53.05586243 C14.12469055 54.30159531 14.11907104 55.54732819 14.11328125 56.83081055 C14.1151796 58.13819687 14.11707794 59.44558319 14.11903381 60.79258728 C14.12389135 64.38577857 14.1162137 67.97884611 14.10608077 71.57202244 C14.09730744 75.33152187 14.09905763 79.09101733 14.09944153 82.8505249 C14.09850407 89.16900709 14.08981183 95.48744134 14.07617188 101.8059082 C14.06047267 109.10512129 14.05517281 116.40428177 14.05590743 123.70351052 C14.05658396 131.47565178 14.04963339 139.24777281 14.04046082 147.01990795 C14.03833231 149.25717178 14.03762001 151.49443233 14.03722191 153.73169708 C14.03602711 157.90929122 14.02629977 162.08682364 14.015625 166.2644043 C14.01607819 167.50204025 14.01653137 168.73967621 14.01699829 170.01481628 C14.01273331 171.15608475 14.00846832 172.29735321 14.0040741 173.47320557 C14.00239825 174.46061359 14.00072241 175.44802162 13.99899578 176.4653511 C13.86257876 179.47828389 13.42303355 182.3438268 12.87036133 185.30639648 C11.67282227 185.59772461 10.4752832 185.88905273 9.24145508 186.18920898 C-12.3911721 191.57670478 -29.21976831 199.7660621 -46.12963867 214.30639648 C-46.83604492 214.87874023 -47.54245117 215.45108398 -48.27026367 216.04077148 C-70.58937766 234.49358226 -85.29294108 265.7460094 -88.12963867 294.30639648 C-91.41857485 332.30309664 -82.64725356 366.28525862 -57.94213867 395.93139648 C-36.33643176 420.62363296 -6.23712167 437.94157627 26.87036133 440.30639648 C63.61560684 442.06156229 96.08720868 432.24826748 123.99536133 407.93139648 C142.66576994 390.6650026 156.62682612 368.64798293 162.49536133 343.74389648 C162.70918457 342.83929688 162.92300781 341.93469727 163.14331055 341.00268555 C165.38875326 330.48701937 165.78846943 319.81890934 166.15014648 309.10107422 C166.17838501 308.40076584 166.20662354 307.70045746 166.23571777 306.97892761 C166.31132234 305.05760505 166.36897879 303.13560057 166.42553711 301.21362305 C166.5723291 300.25423828 166.71912109 299.29485352 166.87036133 298.30639648 C167.86036133 297.64639648 168.85036133 296.98639648 169.87036133 296.30639648 C170.23334069 294.32892526 170.23334069 294.32892526 170.05786133 292.18139648 C169.96504883 290.26327148 169.96504883 290.26327148 169.87036133 288.30639648 C169.08951172 288.08991455 168.30866211 287.87343262 167.50415039 287.65039062 C164.87036133 286.30639648 164.87036133 286.30639648 163.61938477 283.87060547 C163.32580078 282.85812744 163.0322168 281.84564941 162.72973633 280.80249023 C162.38612061 279.67713867 162.04250488 278.55178711 161.68847656 277.39233398 C161.15975952 275.58635742 161.15975952 275.58635742 160.62036133 273.74389648 C154.17239618 253.13646589 144.72393731 237.06096928 129.87036133 221.30639648 C129.21938477 220.57936523 128.5684082 219.85233398 127.89770508 219.10327148 C111.06145186 201.06674587 88.61110527 191.30444784 64.87036133 186.30639648 C62.96379051 184.39982566 63.61883496 180.91829178 63.55834961 178.31762695 C63.53785931 177.57614033 63.517369 176.8346537 63.49625778 176.07069778 C63.42980552 173.56344171 63.37207958 171.05608529 63.31567383 168.54858398 C63.29473789 167.67322872 63.27380196 166.79787346 63.2522316 165.89599228 C62.72975488 143.68186766 62.71736759 121.46595036 62.73999023 99.24682617 C62.74581839 93.46602413 62.74230581 87.68526721 62.73641777 81.90446663 C62.7328232 77.40597179 62.73394336 72.90748792 62.73654556 68.40899277 C62.73721123 66.27267323 62.73639903 64.1363527 62.73406601 62.00003433 C62.73154391 59.05671721 62.73536769 56.11347732 62.7409668 53.17016602 C62.73894257 52.29577377 62.73691833 51.42138153 62.73483276 50.52049255 C62.75606914 44.53498085 62.75606914 44.53498085 63.87036133 42.30639648 C66.29133618 42.04370131 68.62969771 41.8846501 71.05786133 41.80639648 C76.02280688 41.61150166 80.28585415 41.31678778 84.87036133 39.30639648 C87.58072787 35.24084666 87.23785673 32.07932106 87.24536133 27.30639648 C87.26985352 26.48655273 87.2943457 25.66670898 87.31958008 24.82202148 C87.32344727 24.03311523 87.32731445 23.24420898 87.33129883 22.43139648 C87.3395166 21.71209961 87.34773437 20.99280273 87.35620117 20.25170898 C86.99464137 18.19756643 86.99464137 18.19756643 85.41845703 16.58276367 C81.56222936 14.65113981 77.90073592 14.80608193 73.63989258 14.75952148 C72.71253799 14.73865479 71.78518341 14.71778809 70.82972717 14.69628906 C67.7808234 14.63337851 64.73218062 14.59354929 61.68286133 14.55639648 C59.574299 14.52228649 57.46573781 14.48810609 55.35717773 14.45385742 C41.15090535 14.25078354 26.95026336 14.28642193 12.74536133 14.55639648 Z " fill="#1F2A31" transform="translate(215.129638671875,43.693603515625)"/>
<path d="M0 0 C0.81516441 0.00582568 1.63032881 0.01165137 2.47019517 0.01765358 C3.33353357 0.01594473 4.19687197 0.01423589 5.08637214 0.01247525 C7.99616484 0.00916569 10.90572991 0.02020808 13.81550157 0.03111184 C15.89458782 0.03167563 17.97367447 0.03136001 20.05276048 0.03022683 C25.71158709 0.02965108 31.37032955 0.04144114 37.02913654 0.05537474 C42.93752467 0.0678453 48.84591456 0.06904969 54.75431383 0.07142556 C65.94925317 0.07765116 77.14415362 0.09407656 88.3390758 0.11412454 C101.08131689 0.13644998 113.8235598 0.14746851 126.56581557 0.15751541 C152.78366869 0.17844187 179.00148725 0.21363878 205.21931016 0.25816262 C206.20931016 2.73316262 206.20931016 2.73316262 207.21931016 5.25816262 C206.55931016 5.25816262 205.89931016 5.25816262 205.21931016 5.25816262 C204.88931016 4.59816262 204.55931016 3.93816262 204.21931016 3.25816262 C135.24931016 3.25816262 66.27931016 3.25816262 -4.78068984 3.25816262 C-9.89483826 16.04353369 -11.39790397 27.75393467 -12.78068984 41.25816262 C-13.44068984 40.59816262 -14.10068984 39.93816262 -14.78068984 39.25816262 C-14.72865124 36.54297231 -14.54324257 34.00686231 -14.21818984 31.32066262 C-14.08090468 30.13730324 -14.08090468 30.13730324 -13.94084609 28.93003762 C-13.14394268 22.75889542 -11.85390766 16.7752438 -10.28068984 10.75816262 C-10.06726943 9.9396885 -9.85384902 9.12121438 -9.63396132 8.27793801 C-7.82005026 1.69998045 -6.95780524 0.03749318 0 0 Z " fill="#60ADC5" transform="translate(153.7806898355484,311.7418373823166)"/>
<path d="M0 0 C1.60407328 -0.02708567 3.2082785 -0.04643483 4.8125 -0.0625 C5.70582031 -0.07410156 6.59914063 -0.08570313 7.51953125 -0.09765625 C10 0 10 0 13 1 C12.343621 5.48525648 11.29925791 9.66914029 10 14 C9.34 14 8.68 14 8 14 C7.67 15.98 7.34 17.96 7 20 C5.70934943 16.1280483 6.77675902 13.55767399 7.9375 9.8125 C8.13279297 9.15830078 8.32808594 8.50410156 8.52929688 7.83007812 C9.01182563 6.21772593 9.50490205 4.60853711 10 3 C8.81575674 1.58422523 8.81575674 1.58422523 5.4375 1.9375 C3.7359375 1.9684375 3.7359375 1.9684375 2 2 C-0.66683155 10.25647756 -3.33117959 18.51374974 -5.99208069 26.7721405 C-7.34449978 30.96888907 -8.70035226 35.16450623 -10.05859375 39.359375 C-13.88126438 51.19706902 -17.59033545 63.06850503 -21.23977661 74.96060181 C-21.74469783 76.60569519 -22.25044932 78.25053398 -22.75704956 79.89511108 C-23.46601222 82.19870527 -24.17111288 84.50344434 -24.875 86.80859375 C-25.19779686 87.85518158 -25.19779686 87.85518158 -25.52711487 88.9229126 C-26.62771552 92.39871193 -26.62771552 92.39871193 -27 96 C-24.36 96 -21.72 96 -19 96 C-16.97009336 89.81626063 -14.9442326 83.63120548 -12.92089844 77.4453125 C-12.23525862 75.35062202 -11.54876553 73.25621061 -10.86132812 71.16210938 C-6.37623965 57.49701524 -2.05693207 43.79854217 2 30 C2.33 30 2.66 30 3 30 C3.33531655 34.61060252 3.3069061 37.82994428 1.25 42 C-0.72295488 46.03558952 -1.86254629 50.08067283 -2.875 54.4375 C-4.83277126 62.7718707 -7.51754132 70.78142962 -10.28613281 78.87548828 C-11.96833547 83.88182465 -13.48087903 88.94222078 -15 94 C-15.66 94 -16.32 94 -17 94 C-17.33 95.65 -17.66 97.3 -18 99 C-21.63 99 -25.26 99 -29 99 C-30.23799887 94.00584357 -29.56497684 90.46275023 -27.90625 85.71875 C-27.43455648 84.29438317 -26.96321461 82.86989985 -26.4921875 81.4453125 C-26.1214209 80.34654785 -26.1214209 80.34654785 -25.74316406 79.22558594 C-24.53736752 75.61453426 -23.41333805 71.97843442 -22.28125 68.34375 C-21.81947672 66.87355137 -21.35723443 65.40349998 -20.89453125 63.93359375 C-20.66459473 63.20253418 -20.4346582 62.47147461 -20.19775391 61.71826172 C-19.73258464 60.23942057 -19.26741536 58.76057943 -18.80224609 57.28173828 C-18.3381984 55.80634628 -17.87424963 54.33092316 -17.41040039 52.85546875 C-16.95171177 51.39699113 -16.49256944 49.93865613 -16.03295898 48.48046875 C-14.89119205 44.85430533 -13.75999379 41.22539105 -12.6484375 37.58984375 C-12.42901489 36.87614624 -12.20959229 36.16244873 -11.98352051 35.42712402 C-11.38406695 33.4750397 -10.78857 31.5217416 -10.19335938 29.56835938 C-9.35120947 27.05017956 -8.47810752 24.70159494 -7.42211914 22.2800293 C-5.59790428 18.07259125 -4.54764979 13.78495436 -3.45117188 9.34179688 C-2.60581701 6.01130241 -1.70560689 2.99428765 0 0 Z " fill="#52A7C3" transform="translate(259,335)"/>
<path d="M0 0 C3.58552881 1.63687185 4.79315055 2.68972583 7 6 C7.34061873 9.0169088 7.57212107 11.09407815 7 14 C4.82425584 16.69105198 3.08934144 18.45532928 0 20 C-6.10397596 20.50866466 -9.10769166 20.05703618 -14 16 C-15.60847182 12.78305636 -15.61309149 9.47862778 -15 6 C-10.55821571 0.50621417 -6.95514895 -0.760928 0 0 Z " fill="#21AAD7" transform="translate(261,0)"/>
<path d="M0 0 C3.39983366 3.03814923 5.30220312 5.44594669 5.625 10 C5.40313583 12.95818899 4.72756682 15.04011034 3.0625 17.5 C-0.53779652 20.43901757 -2.32855682 20.77674811 -6.84765625 20.4609375 C-10.07450043 19.7698892 -11.79266413 18.40800277 -14 16 C-16.32107318 12.1902385 -16.20303852 9.44514962 -15.61328125 5.125 C-14.67018594 1.85720478 -12.88089782 0.64622732 -10 -1 C-5.90844402 -2.36385199 -3.98143212 -1.57884377 0 0 Z " fill="#2EAEDC" transform="translate(226,269)"/>
<path d="M0 0 C3.0413374 1.63764322 5.28615407 3.09993339 7.4375 5.8125 C8.31325348 9.218208 7.89136765 11.61280292 7 15 C4.38139847 18.54281383 2.74658348 19.78669043 -1.5 21 C-6.31804413 21 -8.37848415 19.50968717 -11.8125 16.3125 C-13.58952665 12.85197442 -13.99798742 9.72106736 -13 6 C-9.66193848 1.45333 -5.73618197 -1.22046425 0 0 Z " fill="#2AABD8" transform="translate(261,181)"/>
<path d="M0 0 C3.72206393 1.34627844 5.01947413 2.61005343 6.9375 6.0625 C6.9375 9.58647438 6.61902223 11.30525308 4.25 13.9375 C1.20139315 15.42060604 -0.70992924 15.55141657 -4.0625 15.0625 C-6.4375 13.5 -6.4375 13.5 -8.0625 11.0625 C-8.625 7.5625 -8.625 7.5625 -8.0625 4.0625 C-5.43176963 0.9675231 -4.07891993 0.08324326 0 0 Z " fill="#25AAD7" transform="translate(254.0625,114.9375)"/>
<path d="M0 0 C4.29 0 8.58 0 13 0 C11.515 1.98 11.515 1.98 10 4 C9.56772002 6.77379651 9.8142068 9.16665363 10 12 C12.0568946 14.0568946 16.35555998 13.25747076 19.19140625 13.31640625 C20.42116432 13.3475779 20.42116432 13.3475779 21.67576599 13.37937927 C24.30458901 13.44496494 26.93351504 13.50380126 29.5625 13.5625 C31.34050561 13.60567667 33.11850065 13.64929067 34.89648438 13.69335938 C39.26421634 13.80065543 43.63205227 13.90189704 48 14 C48.495 14.99 48.495 14.99 49 16 C43.6287823 15.88080143 38.25771443 15.75650133 32.88671875 15.62768555 C31.06350832 15.58465185 29.2402657 15.542958 27.41699219 15.50268555 C24.78050072 15.44420915 22.14416662 15.3807475 19.5078125 15.31640625 C18.30561569 15.29133751 18.30561569 15.29133751 17.07913208 15.26576233 C11.34533999 15.11915485 5.70224609 14.6215404 0 14 C0 9.38 0 4.76 0 0 Z " fill="#687277" transform="translate(251,44)"/>
<path d="M0 0 C-28.73284274 13.28174549 -58.80094932 15.56868797 -89 6 C-89 5.67 -89 5.34 -89 5 C-82.90345292 5.40550428 -76.91036592 6.15357693 -70.88500977 7.14453125 C-54.88272692 9.74450356 -35.27071777 11.70986084 -20 5 C-18.35934748 4.5033841 -16.71334343 4.02411025 -15.0625 3.5625 C-11.97058856 2.6666267 -9.50891223 1.7453619 -6.625 0.25 C-3.65716428 -1.16325511 -2.99527786 -0.94319388 0 0 Z " fill="#54AAC7" transform="translate(305,459)"/>
<path d="M0 0 C1.9375 1.1875 1.9375 1.1875 3 3 C3.53520313 6.59350675 3.44814771 8.31881548 1.4375 11.375 C-1.8994213 13.5996142 -4.06905293 13.50030235 -8 13 C-10.12579971 11.58280019 -10.77765895 10.4605636 -11.875 8.1875 C-12.06464038 4.86879334 -10.67773673 2.79622789 -9 0 C-5.85000502 -1.57499749 -3.36459118 -0.70833498 0 0 Z " fill="#39B3DE" transform="translate(292,278)"/>
<path d="M0 0 C2 1.6875 2 1.6875 3 4 C2.92974155 7.44266385 2.60090824 9.28353249 0.375 11.9375 C-3.11319754 13.49800943 -5.36432898 12.99154664 -9 12 C-11 10.3125 -11 10.3125 -12 8 C-11.92974155 4.55733615 -11.60090824 2.71646751 -9.375 0.0625 C-5.88680246 -1.49800943 -3.63567102 -0.99154664 0 0 Z " fill="#56AEC7" transform="translate(255,230)"/>
<path d="M0 0 C2.8125 1.375 2.8125 1.375 4.8125 4.375 C4.625 7.9375 4.625 7.9375 3.8125 11.375 C0.8125 13.375 0.8125 13.375 -2.6875 13.25 C-6.1875 12.375 -6.1875 12.375 -8.1875 10.6875 C-9.58958688 7.4451741 -9.31894192 5.69861065 -8.1875 2.375 C-5.2029985 -0.35368709 -3.9954035 -0.78341245 0 0 Z " fill="#4AACCA" transform="translate(275.1875,253.625)"/>
<path d="M0 0 C1.20527344 -0.01933594 2.41054688 -0.03867187 3.65234375 -0.05859375 C7.58458242 0.51345013 9.23034312 1.72357357 12.0625 4.4375 C11.7325 5.4275 11.4025 6.4175 11.0625 7.4375 C10.27875 6.798125 9.495 6.15875 8.6875 5.5 C4.53520247 2.23748051 1.25429062 1.89835251 -3.9375 2.4375 C-7.44063626 3.8387545 -8.68476213 5.06681779 -10.8125 8.1875 C-12.18470886 12.15165893 -11.96726228 14.39200532 -10.9375 18.4375 C-9.22441658 21.94153427 -8.22217451 23.24771699 -4.9375 25.4375 C-0.36651563 26.0340522 3.79324222 25.96635741 8.0625 24.1875 C10.12381195 22.38385204 11.09691599 20.98313057 12.0625 18.4375 C12.7225 18.4375 13.3825 18.4375 14.0625 18.4375 C13.58893877 22.69955106 11.21551808 24.72443793 8.0625 27.4375 C2.79159882 29.19083696 -2.93804573 29.33521416 -8 27.0625 C-8.639375 26.52625 -9.27875 25.99 -9.9375 25.4375 C-9.9375 24.7775 -9.9375 24.1175 -9.9375 23.4375 C-10.5975 23.4375 -11.2575 23.4375 -11.9375 23.4375 C-11.9375 22.1175 -11.9375 20.7975 -11.9375 19.4375 C-12.5975 19.4375 -13.2575 19.4375 -13.9375 19.4375 C-15.54475691 16.22298618 -15.41147924 12.92416924 -14.9375 9.4375 C-11.2372917 2.4335343 -7.90484633 0.00843634 0 0 Z " fill="#59A9C2" transform="translate(299.9375,338.5625)"/>
<path d="M0 0 C3.58552881 1.63687185 4.79315055 2.68972583 7 6 C7.34061873 9.0169088 7.57212107 11.09407815 7 14 C4.82425584 16.69105198 3.08934144 18.45532928 0 20 C-6.10397596 20.50866466 -9.10769166 20.05703618 -14 16 C-15.60847182 12.78305636 -15.61309149 9.47862778 -15 6 C-10.55821571 0.50621417 -6.95514895 -0.760928 0 0 Z M-13 4 C-13.46788961 8.77247406 -13.68514232 11.95087582 -11 16.0625 C-7.6769737 18.20862115 -5.82168378 18.74920571 -1.9375 18.484375 C1.52395669 17.61901083 3.01181405 15.85801731 5 13 C5.83333333 10 5.83333333 10 5 7 C3.02314512 4.15827111 1.57327851 2.30767745 -1.9375 1.62109375 C-6.02261771 1.50503927 -9.3064284 2.1532142 -13 4 Z " fill="#3B9DB9" transform="translate(261,0)"/>
<path d="M0 0 C3.39983366 3.03814923 5.30220312 5.44594669 5.625 10 C5.40313583 12.95818899 4.72756682 15.04011034 3.0625 17.5 C-0.53779652 20.43901757 -2.32855682 20.77674811 -6.84765625 20.4609375 C-10.07450043 19.7698892 -11.79266413 18.40800277 -14 16 C-16.32107318 12.1902385 -16.20303852 9.44514962 -15.61328125 5.125 C-14.67018594 1.85720478 -12.88089782 0.64622732 -10 -1 C-5.90844402 -2.36385199 -3.98143212 -1.57884377 0 0 Z M-12.5625 3.0625 C-14.8758071 7.78969277 -13.6328859 11.14089766 -12 15.9375 C-9.63085903 18.38067662 -8.86666175 18.39973341 -5.5625 18.5625 C-2.56477374 18.36720839 -1.09714607 18.05449658 1.5625 16.5625 C3.68875469 12.7722199 3.32693592 9.25016698 3 5 C2.34 5 1.68 5 1 5 C0.67 4.01 0.34 3.02 0 2 C-4.49204149 -0.24602074 -8.78397055 0.02124459 -12.5625 3.0625 Z " fill="#47A1BB" transform="translate(226,269)"/>
<path d="M0 0 C2.9375 2.4375 2.9375 2.4375 5 5 C5.33 5.33 5.66 5.66 6 6 C6.59406376 10.92224254 6.56110372 13.94111651 3.5625 18 C0.98337228 20.67080288 -0.85506518 21.50770801 -4.5625 21.6875 C-8.74024036 21.35638061 -11.08631133 20.09579422 -14 17 C-15.73631636 13.52736727 -15.60190402 9.78806987 -15 6 C-10.79829204 0.69257942 -6.77617381 -1.20724936 0 0 Z M-10.9375 4.0625 C-13.53327109 7.7595073 -13.71253588 9.56644342 -13 14 C-11.17932723 17.10188694 -9.94634508 18.60153891 -6.625 20 C-3.09425376 20 -0.99872317 18.7992339 2 17 C4.42520546 14.57479454 4.68564441 13.37932259 5 10 C4.23355683 7.07358062 3.37191157 5.39946058 1.3125 3.1875 C-3.29243877 0.82280171 -6.74463053 1.11857038 -10.9375 4.0625 Z " fill="#4EA3C1" transform="translate(221,364)"/>
<path d="M0 0 C3.0413374 1.63764322 5.28615407 3.09993339 7.4375 5.8125 C8.31325348 9.218208 7.89136765 11.61280292 7 15 C4.38139847 18.54281383 2.74658348 19.78669043 -1.5 21 C-6.31804413 21 -8.37848415 19.50968717 -11.8125 16.3125 C-13.58952665 12.85197442 -13.99798742 9.72106736 -13 6 C-9.66193848 1.45333 -5.73618197 -1.22046425 0 0 Z M-9.5 3.9375 C-11.58372971 8.19178149 -10.90980405 11.46086892 -10 16 C-4.24533701 18.92254032 -4.24533701 18.92254032 2 19 C4.55539198 16.09214016 4.98304343 14.24587027 5.25 10.375 C5.13943166 7.00949011 5.13943166 7.00949011 4 4 C-0.27044597 0.87928948 -5.34042981 0.7138331 -9.5 3.9375 Z " fill="#4EA4BF" transform="translate(261,181)"/>
<path d="M0 0 C2.20703125 0.46875 2.20703125 0.46875 4.20703125 3.46875 C3.5315625 3.38496094 2.85609375 3.30117188 2.16015625 3.21484375 C1.268125 3.11300781 0.37609375 3.01117188 -0.54296875 2.90625 C-1.4246875 2.80183594 -2.30640625 2.69742187 -3.21484375 2.58984375 C-5.67729326 2.47418324 -7.45834939 2.73236305 -9.79296875 3.46875 C-9.84719822 4.9058309 -9.88586598 6.34350462 -9.91796875 7.78125 C-9.95277344 8.98201172 -9.95277344 8.98201172 -9.98828125 10.20703125 C-9.95114197 12.75263576 -9.95114197 12.75263576 -7.79296875 15.46875 C-4.32151642 16.30447001 -1.83646999 16.82573727 1.58203125 15.65625 C3.35791369 14.54889273 3.35791369 14.54889273 4.20703125 12.46875 C4.27597845 11.09532169 4.29170833 9.71872898 4.26953125 8.34375 C4.24890625 7.065 4.22828125 5.78625 4.20703125 4.46875 C5.19703125 4.79875 6.18703125 5.12875 7.20703125 5.46875 C7.64900991 9.88853657 7.49231407 12.00192357 5.14453125 15.84375 C1.62516631 18.98871441 -0.10298568 19.5510304 -4.79296875 19.46875 C-8.0022593 18.31824961 -10.05075709 17.41338303 -12.16796875 14.71875 C-13.0876716 11.40781974 -13.21333373 8.89172201 -12.79296875 5.46875 C-9.37192108 0.10910865 -5.90428327 -0.07081599 0 0 Z " fill="#57A6BD" transform="translate(279.79296875,411.53125)"/>
<path d="M0 0 C0.66 0 1.32 0 2 0 C1.466889 5.52719677 0.4371389 10.42515417 -1.5625 15.625 C-1.81918457 16.30433594 -2.07586914 16.98367188 -2.34033203 17.68359375 C-5.16617083 24.87239429 -8.95928541 31.4364027 -13 38 C-13.495 36.515 -13.495 36.515 -14 35 C-12.6985195 32.40603541 -11.33638848 29.93874971 -9.875 27.4375 C-4.94037732 18.64191646 -2.27607506 9.77911646 0 0 Z " fill="#5BACC6" transform="translate(362,382)"/>
<path d="M0 0 C3.72206393 1.34627844 5.01947413 2.61005343 6.9375 6.0625 C6.9375 9.58647438 6.61902223 11.30525308 4.25 13.9375 C1.20139315 15.42060604 -0.70992924 15.55141657 -4.0625 15.0625 C-6.4375 13.5 -6.4375 13.5 -8.0625 11.0625 C-8.625 7.5625 -8.625 7.5625 -8.0625 4.0625 C-5.43176963 0.9675231 -4.07891993 0.08324326 0 0 Z M-5.9375 3.1875 C-7.34786955 5.13724484 -7.34786955 5.13724484 -6.875 8.125 C-6.29601637 11.15765868 -6.29601637 11.15765868 -4.0625 13.0625 C-1.0625 13.39583333 -1.0625 13.39583333 1.9375 13.0625 C4.23577312 11.18311828 4.23577312 11.18311828 4.25 8.125 C4.17446753 5.12795805 4.17446753 5.12795805 2.75 3.1875 C-0.32596124 1.27828268 -2.8473938 1.33343628 -5.9375 3.1875 Z " fill="#399EBE" transform="translate(254.0625,114.9375)"/>
<path d="M0 0 C0.1875 2.875 0.1875 2.875 0 6 C-3.22373677 8.14915785 -4.26703674 8.38286803 -8 8 C-10 6 -10 6 -10.125 3.375 C-10.08375 2.59125 -10.0425 1.8075 -10 1 C-6.21812119 -0.83691257 -4.05431692 -1.15837626 0 0 Z " fill="#32B2DD" transform="translate(256,233)"/>
<path d="M0 0 C4.54222566 1.63414695 8.53319661 3.95837058 12.6875 6.375 C18.62269936 9.77985142 24.50936846 12.76884541 31 15 C30.67 15.66 30.34 16.32 30 17 C25.27698447 16.35928084 21.45554072 14.49606822 17.25 12.375 C16.19135742 11.84410767 16.19135742 11.84410767 15.11132812 11.30249023 C9.61584646 8.47211532 4.48798655 5.30098711 0 1 C0 0.67 0 0.34 0 0 Z " fill="#5AACC9" transform="translate(184,446)"/>
<path d="M0 0 C0.33 0.66 0.66 1.32 1 2 C1.66 2 2.32 2 3 2 C3.30292969 2.76183594 3.60585937 3.52367187 3.91796875 4.30859375 C6.29874243 10.1762852 8.80110479 15.73905622 12.08203125 21.16015625 C13 23 13 23 13 26 C13.99 26.33 14.98 26.66 16 27 C16.33 28.65 16.66 30.3 17 32 C13.18819183 28.46661956 10.45642807 24.87680269 7.9375 20.3125 C7.59460938 19.70108154 7.25171875 19.08966309 6.8984375 18.4597168 C0 5.93006903 0 5.93006903 0 0 Z " fill="#5EACC4" transform="translate(146,393)"/>
<path d="M0 0 C0.33 0 0.66 0 1 0 C1.33 6.93 1.66 13.86 2 21 C4.93144368 21.73286092 7.16825067 22.16043754 10.109375 22.31640625 C10.86347656 22.35830078 11.61757812 22.40019531 12.39453125 22.44335938 C13.56048828 22.50233398 13.56048828 22.50233398 14.75 22.5625 C15.54277344 22.60568359 16.33554688 22.64886719 17.15234375 22.69335938 C19.10137815 22.79902991 21.05066748 22.89997966 23 23 C23 23.33 23 23.66 23 24 C20.10391407 24.05413245 17.20884805 24.09373641 14.3125 24.125 C13.08756836 24.15013672 13.08756836 24.15013672 11.83789062 24.17578125 C3.51254466 24.24319296 3.51254466 24.24319296 0 22 C-2.52182234 17.93993999 -2.10152638 13.90240535 -1.6875 9.3125 C-1.63916016 8.63638672 -1.59082031 7.96027344 -1.54101562 7.26367188 C-1.15099247 2.30198495 -1.15099247 2.30198495 0 0 Z " fill="#44484E" transform="translate(204,62)"/>
<path d="M0 0 C3.34745137 3.34745137 3.40729659 4.55087497 3.45898438 9.11132812 C3.44834961 10.2627832 3.44834961 10.2627832 3.4375 11.4375 C3.45748047 12.20126953 3.47746094 12.96503906 3.49804688 13.75195312 C3.49740234 14.49251953 3.49675781 15.23308594 3.49609375 15.99609375 C3.49794678 16.66825928 3.4997998 17.3404248 3.50170898 18.03295898 C3 20 3 20 -1 24 C-0.67 16.08 -0.34 8.16 0 0 Z " fill="#2B3338" transform="translate(302,60)"/>
<path d="M0 0 C1.9375 1.1875 1.9375 1.1875 3 3 C3.53520313 6.59350675 3.44814771 8.31881548 1.4375 11.375 C-1.81682503 13.54455002 -4.17130414 13.29451507 -8 13 C-8.33 12.34 -8.66 11.68 -9 11 C-4.545 10.505 -4.545 10.505 0 10 C0 7.36 0 4.72 0 2 C-1.27875 1.979375 -2.5575 1.95875 -3.875 1.9375 C-4.59429687 1.92589844 -5.31359375 1.91429687 -6.0546875 1.90234375 C-8.08185404 1.87350758 -8.08185404 1.87350758 -10 3 C-9.67 2.01 -9.34 1.02 -9 0 C-5.85000502 -1.57499749 -3.36459118 -0.70833498 0 0 Z " fill="#54AFC6" transform="translate(292,278)"/>
<path d="M0 0 C2.29441017 2.10368478 3.68391692 4.02529969 5.0078125 6.8359375 C5.35457031 7.57070313 5.70132812 8.30546875 6.05859375 9.0625 C6.41050781 9.825625 6.76242187 10.58875 7.125 11.375 C7.48464844 12.13039063 7.84429687 12.88578125 8.21484375 13.6640625 C9.96702162 17.41779187 11.45443539 20.85040251 12 25 C8.04116562 21.56722695 6.02413442 17.68236197 3.75 13.0625 C3.38648438 12.35931641 3.02296875 11.65613281 2.6484375 10.93164062 C0.76760632 7.15937207 -0.50768784 4.32380809 0 0 Z " fill="#2D3134" transform="translate(375,281)"/>
<path d="M0 0 C1.32 0.33 2.64 0.66 4 1 C4.38063221 3.3260857 4.71269945 5.66055264 5 8 C4 9 4 9 0.9375 9.0625 C-0.031875 9.041875 -1.00125 9.02125 -2 9 C-2.6875 7.3125 -2.6875 7.3125 -3 5 C-1.5625 2.25 -1.5625 2.25 0 0 Z " fill="#2FAFDB" transform="translate(273,256)"/>
<path d="M0 0 C0.33 0.99 0.66 1.98 1 3 C0.39671875 2.95359375 -0.2065625 2.9071875 -0.828125 2.859375 C-5.92780594 2.61123716 -5.92780594 2.61123716 -10.5625 4.5 C-12.63757067 8.10881856 -12.13357021 10.85932346 -12 15 C-12.66 15.66 -13.32 16.32 -14 17 C-15.73631636 13.52736727 -15.60190402 9.78806987 -15 6 C-10.25024139 0.00030492 -7.17613493 -0.11574411 0 0 Z " fill="#57ABC6" transform="translate(221,364)"/>
<path d="M0 0 C3.58552881 1.63687185 4.79315055 2.68972583 7 6 C7.25760279 8.69452521 7.08900053 11.28548375 7 14 C6.67 14 6.34 14 6 14 C6 11.69 6 9.38 6 7 C5.38125 6.71125 4.7625 6.4225 4.125 6.125 C2 5 2 5 0 3 C-4.53942698 2.77674949 -8.57117061 2.89279265 -13 4 C-9.03924393 -0.14079043 -5.67470334 -0.62084086 0 0 Z " fill="#46A3BB" transform="translate(261,0)"/>
<path d="M0 0 C1.43739513 -0.02712066 2.87493863 -0.04645067 4.3125 -0.0625 C5.51326172 -0.07990234 5.51326172 -0.07990234 6.73828125 -0.09765625 C9 0 9 0 12 1 C11.343621 5.48525648 10.29925791 9.66914029 9 14 C8.34 14 7.68 14 7 14 C6.67 15.98 6.34 17.96 6 20 C4.70934943 16.1280483 5.77675902 13.55767399 6.9375 9.8125 C7.13279297 9.15830078 7.32808594 8.50410156 7.52929688 7.83007812 C8.01182563 6.21772593 8.50490205 4.60853711 9 3 C8.01732141 1.79438816 8.01732141 1.79438816 6.15234375 1.90234375 C4.1015625 1.93489583 2.05078125 1.96744792 0 2 C0 1.34 0 0.68 0 0 Z " fill="#5AAFCA" transform="translate(260,335)"/>
<path d="M0 0 C3.03345679 0.32574033 3.94697744 0.94138005 6.03515625 3.25 C6.70417969 4.1575 7.37320313 5.065 8.0625 6 C10.81638661 9.95239132 10.81638661 9.95239132 15 12 C15 12.66 15 13.32 15 14 C16.32 14.66 17.64 15.32 19 16 C19 16.66 19 17.32 19 18 C10.97406767 14.49676395 4.62932232 7.25260496 0 0 Z " fill="#5BACC7" transform="translate(164,427)"/>
<path d="M0 0 C-1.32 0.33 -2.64 0.66 -4 1 C-4 1.66 -4 2.32 -4 3 C-15.55 3 -27.1 3 -39 3 C-38.67 2.34 -38.34 1.68 -38 1 C-37.0255896 1.00785522 -37.0255896 1.00785522 -36.03149414 1.01586914 C-33.04183957 1.03686503 -30.05220059 1.0497313 -27.0625 1.0625 C-26.04091797 1.07087891 -25.01933594 1.07925781 -23.96679688 1.08789062 C-18.54546422 1.10521118 -13.26907703 0.94087153 -7.89257812 0.22265625 C-5.25707596 -0.08740283 -2.64943131 -0.06793414 0 0 Z " fill="#4B5257" transform="translate(280,482)"/>
<path d="M0 0 C0.33 0 0.66 0 1 0 C1.42765786 5.88029563 0.60855934 9.41777284 -1.9765625 14.6796875 C-3.58202966 18.31956342 -4.29922059 22.09960935 -5 26 C-5.66 26 -6.32 26 -7 26 C-5.55993623 17.05870856 -2.79194029 8.58894609 0 0 Z " fill="#62ABC0" transform="translate(261,365)"/>
<path d="M0 0 C1.65 0 3.3 0 5 0 C5.19335938 0.63808594 5.38671875 1.27617187 5.5859375 1.93359375 C5.84632813 2.75988281 6.10671875 3.58617187 6.375 4.4375 C6.63023437 5.26121094 6.88546875 6.08492188 7.1484375 6.93359375 C7.80882227 9.17798016 7.80882227 9.17798016 10 10 C7.36 10 4.72 10 2 10 C2.33 7.03 2.66 4.06 3 1 C2.01 0.67 1.02 0.34 0 0 Z " fill="#8F9296" transform="translate(382,331)"/>
<path d="M0 0 C3.23947955 4.85921933 2.32787526 10.22712824 2.3125 15.9375 C2.32861328 17.13052734 2.34472656 18.32355469 2.36132812 19.55273438 C2.36197266 20.69935547 2.36261719 21.84597656 2.36328125 23.02734375 C2.36775269 24.60116821 2.36775269 24.60116821 2.37231445 26.20678711 C1.95600793 29.33004152 1.0929239 30.69539713 -1 33 C-1 31.02 -1 29.04 -1 27 C-0.34 27 0.32 27 1 27 C0.67 18.09 0.34 9.18 0 0 Z " fill="#454A50" transform="translate(315,56)"/>
<path d="M0 0 C0.33 0 0.66 0 1 0 C1.309375 1.134375 1.61875 2.26875 1.9375 3.4375 C2.62924531 6.78775099 2.62924531 6.78775099 4 8 C7.36629251 8.14636054 9.78419562 8.07193479 13 7 C13.73323796 4.98491642 13.73323796 4.98491642 14 3 C14.25 5.3125 14.25 5.3125 14 8 C11.76218351 10.49602608 10.31953394 10.9534013 7 11.4375 C4 11 4 11 1.625 9.4375 C-0.54455002 6.18317497 -0.29451507 3.82869586 0 0 Z " fill="#439AB4" transform="translate(246,119)"/>
<path d="M0 0 C15.05141129 1.03427419 15.05141129 1.03427419 21 5 C13.69303751 4.54034292 7.00242552 3.11670277 0 1 C0 0.67 0 0.34 0 0 Z " fill="#5AADC4" transform="translate(216,464)"/>
<path d="M0 0 C1 2 1 2 0.51171875 4.0234375 C0.10373047 5.18746094 0.10373047 5.18746094 -0.3125 6.375 C-0.57675781 7.14585937 -0.84101563 7.91671875 -1.11328125 8.7109375 C-1.95627822 10.88713231 -2.91935932 12.93309773 -4 15 C-4.66 15 -5.32 15 -6 15 C-6.33 15.66 -6.66 16.32 -7 17 C-6.37954537 12.76677156 -4.89476441 9.47709705 -2.9375 5.6875 C-2.38964844 4.61886719 -1.84179688 3.55023438 -1.27734375 2.44921875 C-0.64505859 1.23685547 -0.64505859 1.23685547 0 0 Z " fill="#3E4449" transform="translate(129,284)"/>
<path d="M0 0 C0.2475 0.515625 0.495 1.03125 0.75 1.5625 C1.1625 2.366875 1.575 3.17125 2 4 C2.495 5.19625 2.99 6.3925 3.5 7.625 C4.92963364 10.19284195 5.67522639 10.88306108 8.484375 11.89453125 C10.99173309 12.38679505 13.45665068 12.76216772 16 13 C16 13.33 16 13.66 16 14 C8.0470297 14.62376238 8.0470297 14.62376238 4.0625 12.25 C1.04457618 8.95771946 0.04853381 7.26187911 -0.125 2.75 C-0.08375 1.8425 -0.0425 0.935 0 0 Z " fill="#5BABC3" transform="translate(210,275)"/>
<path d="M0 0 C1.90747183 2.86120775 3.00353706 5.35254993 4.1875 8.5625 C4.55230469 9.53316406 4.91710937 10.50382812 5.29296875 11.50390625 C6 14 6 14 5 16 C4.34 15.67 3.68 15.34 3 15 C3 13.35 3 11.7 3 10 C2.34 10 1.68 10 1 10 C-0.60725635 6.78548731 -0.05748185 3.56387464 0 0 Z " fill="#373B3F" transform="translate(131,392)"/>
<path d="M0 0 C0.66 0.33 1.32 0.66 2 1 C1.505 1.495 1.01 1.99 0.5 2.5 C-1.66978095 6.11630158 -1.20888419 8.82231616 -1 13 C-1.99 12.67 -2.98 12.34 -4 12 C-4.49230769 4.61538462 -4.49230769 4.61538462 -2 1.5 C-1.34 1.005 -0.68 0.51 0 0 Z " fill="#3D9FBB" transform="translate(252,183)"/>
<path d="M0 0 C0.66 0 1.32 0 2 0 C1.55966813 5.19591612 1.11696661 8.66335081 -2 13 C-3.18414294 9.44757118 -2.69535532 8.30169438 -1.5625 4.8125 C-1.27503906 3.91144531 -0.98757813 3.01039063 -0.69140625 2.08203125 C-0.46324219 1.39496094 -0.23507812 0.70789063 0 0 Z " fill="#4BA8C4" transform="translate(362,382)"/>
<path d="M0 0 C0.99 0.99 1.98 1.98 3 3 C2.875 6.5625 2.875 6.5625 2 10 C-1.22791555 12.1519437 -2.28400809 12.20086443 -6 12 C-4 11 -2 10 0 9 C0 6.03 0 3.06 0 0 Z " fill="#58ABBD" transform="translate(277,255)"/>
<path d="M0 0 C4.29 0 8.58 0 13 0 C10 3 10 3 7.51953125 3.29296875 C6.62621094 3.25816406 5.73289062 3.22335938 4.8125 3.1875 C3.91144531 3.16042969 3.01039063 3.13335937 2.08203125 3.10546875 C1.05142578 3.05326172 1.05142578 3.05326172 0 3 C0 2.01 0 1.02 0 0 Z " fill="#5C686C" transform="translate(251,44)"/>
<path d="M0 0 C0.66 0 1.32 0 2 0 C1.52753358 4.25219775 -0.77272377 6.37314725 -4 9 C-6.3125 8.8125 -6.3125 8.8125 -8 8 C-7.05125 7.4225 -6.1025 6.845 -5.125 6.25 C-2.23865902 4.17183449 -1.15904259 3.24531925 0 0 Z " fill="#4EA3BC" transform="translate(312,357)"/>
<path d="M0 0 C0.33 0 0.66 0 1 0 C0.67 4.62 0.34 9.24 0 14 C-2 12 -2 12 -2.25 8.125 C-2.18064077 4.94603525 -1.80254921 2.70382382 0 0 Z " fill="#46A7C8" transform="translate(287,344)"/>
<path d="M0 0 C0.33 0.66 0.66 1.32 1 2 C1.66 2 2.32 2 3 2 C4.26237731 4.52475462 4.09856404 6.31200466 4.0625 9.125 C4.05347656 10.03507812 4.04445313 10.94515625 4.03515625 11.8828125 C4.02355469 12.58148438 4.01195312 13.28015625 4 14 C2.30566082 10.9530371 1.50532888 8.17178534 0.875 4.75 C0.70742188 3.85796875 0.53984375 2.9659375 0.3671875 2.046875 C0.18542969 1.03367187 0.18542969 1.03367187 0 0 Z " fill="#42464E" transform="translate(374,311)"/>
<path d="M0 0 C2.97069541 2.54631035 4.4775751 5.42230149 6 9 C5.67 9.66 5.34 10.32 5 11 C0.05973451 6.28429204 0.05973451 6.28429204 -0.125 2.3125 C-0.08375 1.549375 -0.0425 0.78625 0 0 Z " fill="#363A3D" transform="translate(375,281)"/>
<path d="M0 0 C0.66 0 1.32 0 2 0 C4.1875 2.75 4.1875 2.75 6 6 C5.61328125 8.203125 5.61328125 8.203125 5 10 C4.15801693 8.90241493 3.32669329 7.79664683 2.5 6.6875 C2.0359375 6.07261719 1.571875 5.45773437 1.09375 4.82421875 C0 3 0 3 0 0 Z " fill="#2F3437" transform="translate(356,276)"/>
<path d="M0 0 C0.7734375 0.495 0.7734375 0.495 1.5625 1 C4.78026512 2.32010877 7.5570528 2.13242105 11 2 C11 2.66 11 3.32 11 4 C4.64102564 5.34516765 4.64102564 5.34516765 1.5625 3.6875 C0 2 0 2 0 0 Z " fill="#54A7BE" transform="translate(244,238)"/>
<path d="M0 0 C7.38461538 0.49230769 7.38461538 0.49230769 10.5 3.0625 C10.995 3.701875 11.49 4.34125 12 5 C10.37276701 4.54965877 8.74826336 4.08944646 7.125 3.625 C5.76761719 3.24214844 5.76761719 3.24214844 4.3828125 2.8515625 C2 2 2 2 0 0 Z " fill="#393D44" transform="translate(195,486)"/>
<path d="M0 0 C4.79280002 0.80904103 6.13520113 3.25984591 9 7 C6 7 6 7 4.39453125 5.46875 C3.87246094 4.8190625 3.35039062 4.169375 2.8125 3.5 C2.28269531 2.8503125 1.75289062 2.200625 1.20703125 1.53125 C0.80871094 1.0259375 0.41039062 0.520625 0 0 Z " fill="#2C3034" transform="translate(147,450)"/>
<path d="M0 0 C0.99 0.33 1.98 0.66 3 1 C1.54634731 2.17249353 0.08692581 3.33783816 -1.375 4.5 C-2.18710937 5.1496875 -2.99921875 5.799375 -3.8359375 6.46875 C-6 8 -6 8 -8 8 C-8 7.34 -8 6.68 -8 6 C-6.35546875 4.45703125 -6.35546875 4.45703125 -4.1875 2.8125 C-3.47980469 2.26207031 -2.77210938 1.71164062 -2.04296875 1.14453125 C-1.36878906 0.76683594 -0.69460938 0.38914062 0 0 Z " fill="#58ACC7" transform="translate(322,445)"/>
<path d="M0 0 C-1.66751148 3.94139078 -4.22710649 6.7892812 -7 10 C-7.33 9.01 -7.66 8.02 -8 7 C-6.85546875 5.17578125 -6.85546875 5.17578125 -5.1875 3.3125 C-4.37345703 2.37857422 -4.37345703 2.37857422 -3.54296875 1.42578125 C-2 0 -2 0 0 0 Z " fill="#53A4CB" transform="translate(344,425)"/>
<path d="M0 0 C0.33 0.99 0.66 1.98 1 3 C-0.9375 5.6875 -0.9375 5.6875 -3 8 C-3.99 7.67 -4.98 7.34 -6 7 C-4.02 4.69 -2.04 2.38 0 0 Z " fill="#333B42" transform="translate(353,436)"/>
<path d="M0 0 C1.875 0.5 1.875 0.5 4 2 C4.98494554 4.65177645 5.45912382 7.20547307 6 10 C3.38275905 7.63202009 1.67138271 5.10399646 0 2 C0 1.34 0 0.68 0 0 Z " fill="#41464C" transform="translate(127,421)"/>
<path d="M0 0 C0.33 0 0.66 0 1 0 C0.67 2.97 0.34 5.94 0 9 C-0.66 9 -1.32 9 -2 9 C-2.33 9.66 -2.66 10.32 -3 11 C-2.69078116 9.54096742 -2.37751201 8.08279278 -2.0625 6.625 C-1.88847656 5.81289063 -1.71445313 5.00078125 -1.53515625 4.1640625 C-1 2 -1 2 0 0 Z " fill="#383C41" transform="translate(121,301)"/>
<path d="M0 0 C0.8125 1.6875 0.8125 1.6875 1 4 C-1.4375 6.75 -1.4375 6.75 -4 9 C-4 5.00095031 -2.27413033 3.19799578 0 0 Z " fill="#383E44" transform="translate(137,272)"/>
<path d="M0 0 C3.96 0 7.92 0 12 0 C12.33 0.99 12.66 1.98 13 3 C11.39504433 2.88557539 9.79101881 2.75805306 8.1875 2.625 C7.29417969 2.55539063 6.40085937 2.48578125 5.48046875 2.4140625 C3 2 3 2 0 0 Z " fill="#54575F" transform="translate(280,230)"/>
<path d="M0 0 C3.55780196 0.60990891 6.6828589 1.5783681 10 3 C9.01 3.66 8.02 4.32 7 5 C4.3125 4.125 4.3125 4.125 2 3 C2 2.34 2 1.68 2 1 C1.34 0.67 0.68 0.34 0 0 Z " fill="#393D42" transform="translate(301,220)"/>
<path d="M0 0 C3.3 0 6.6 0 10 0 C9.67 0.66 9.34 1.32 9 2 C6.67843403 2.40729228 4.3431213 2.74438677 2 3 C2 2.34 2 1.68 2 1 C1.34 0.67 0.68 0.34 0 0 Z " fill="#111B26" transform="translate(205,97)"/>
<path d="M0 0 C1 2 1 2 0.44140625 3.9453125 C0.15136719 4.66460937 -0.13867188 5.38390625 -0.4375 6.125 C-0.72496094 6.84945313 -1.01242187 7.57390625 -1.30859375 8.3203125 C-1.53675781 8.87460937 -1.76492188 9.42890625 -2 10 C-2.33 10 -2.66 10 -3 10 C-2.88637738 8.5199159 -2.75877092 7.04089926 -2.625 5.5625 C-2.55539062 4.73878906 -2.48578125 3.91507812 -2.4140625 3.06640625 C-2.27742188 2.38449219 -2.14078125 1.70257813 -2 1 C-1.34 0.67 -0.68 0.34 0 0 Z " fill="#31353B" transform="translate(387,402)"/>
<path d="M0 0 C0.33 0.99 0.66 1.98 1 3 C-1 5 -1 5 -3.1640625 5.1953125 C-4.38222656 5.16050781 -4.38222656 5.16050781 -5.625 5.125 C-6.44226563 5.10695313 -7.25953125 5.08890625 -8.1015625 5.0703125 C-8.72804687 5.04710937 -9.35453125 5.02390625 -10 5 C-10 4.67 -10 4.34 -10 4 C-8.906875 3.896875 -7.81375 3.79375 -6.6875 3.6875 C-3.14440371 3.02692273 -2.06756277 2.7972908 0 0 Z " fill="#339FC5" transform="translate(228,283)"/>
<path d="M0 0 C0.99 0.33 1.98 0.66 3 1 C2.54625 1.5775 2.0925 2.155 1.625 2.75 C0.15886484 4.7800333 -0.94857784 6.73539843 -2 9 C-2.125 5.625 -2.125 5.625 -2 2 C-1.34 1.34 -0.68 0.68 0 0 Z " fill="#3BA5BF" transform="translate(213,270)"/>
<path d="M0 0 C0.33 0.66 0.66 1.32 1 2 C-3.43076923 5.07692308 -3.43076923 5.07692308 -6.3125 4.6875 C-6.869375 4.460625 -7.42625 4.23375 -8 4 C-5.37801226 1.84622436 -3.35595828 0.59927826 0 0 Z " fill="#2F363C" transform="translate(184,230)"/>
<path d="M0 0 C2.97 0.99 5.94 1.98 9 3 C9 3.33 9 3.66 9 4 C6.36 3.67 3.72 3.34 1 3 C0.67 2.01 0.34 1.02 0 0 Z " fill="#383E44" transform="translate(311,224)"/>
<path d="M0 0 C0.33 0 0.66 0 1 0 C1 2.64 1 5.28 1 8 C0.34 8 -0.32 8 -1 8 C-1.33 8.66 -1.66 9.32 -2 10 C-1.54177532 6.53058454 -1.10868317 3.32604951 0 0 Z " fill="#6AB1C5" transform="translate(264,355)"/>
</svg>
